<svg width="300" height="94" viewBox="0 0 300 94" fill="none" xmlns="http://www.w3.org/2000/svg">
<g clip-path="url(#clip0_64_18)">
<path d="M158.107 23.6176C158.107 27.005 155.389 29.7337 152.015 29.7337C148.641 29.7337 145.923 27.005 145.923 23.6176C145.923 20.2302 148.547 17.5015 152.015 17.5015C155.483 17.5956 158.107 20.3243 158.107 23.6176ZM132.99 35.9439C132.99 36.5085 132.99 37.4494 132.99 37.4494C132.99 37.4494 130.084 33.6857 123.899 33.6857C113.683 33.6857 105.717 41.4955 105.717 52.3163C105.717 63.043 113.589 70.9469 123.899 70.9469C130.178 70.9469 132.99 67.0891 132.99 67.0891V68.6887C132.99 69.4414 133.552 70.006 134.302 70.006H141.893V34.6266C141.893 34.6266 134.958 34.6266 134.302 34.6266C133.552 34.6266 132.99 35.2853 132.99 35.9439ZM132.99 58.6206C131.584 60.6907 128.772 62.4785 125.398 62.4785C119.4 62.4785 114.808 58.7147 114.808 52.3163C114.808 45.9179 119.4 42.1542 125.398 42.1542C128.679 42.1542 131.678 44.036 132.99 46.012V58.6206ZM147.516 34.6266H156.514V70.006H147.516V34.6266ZM281.912 33.6857C275.726 33.6857 272.821 37.4494 272.821 37.4494V17.5956H263.824V70.006C263.824 70.006 270.759 70.006 271.415 70.006C272.165 70.006 272.727 69.3473 272.727 68.6887V67.0891C272.727 67.0891 275.633 70.9469 281.818 70.9469C292.034 70.9469 300 63.043 300 52.3163C300 41.5896 292.034 33.6857 281.912 33.6857ZM280.412 62.3844C276.945 62.3844 274.227 60.5966 272.821 58.5265V45.9179C274.227 44.036 277.226 42.0601 280.412 42.0601C286.41 42.0601 291.003 45.8238 291.003 52.2222C291.003 58.6206 286.41 62.3844 280.412 62.3844ZM259.138 49.023V70.1001H250.141V50.0581C250.141 44.2242 248.266 41.8719 243.205 41.8719C240.487 41.8719 237.676 43.2833 235.895 45.3534V70.006H226.898V34.6266H234.021C234.77 34.6266 235.333 35.2853 235.333 35.9439V37.4494C237.957 34.7207 241.425 33.6857 244.892 33.6857C248.828 33.6857 252.109 34.8148 254.733 37.0731C257.919 39.7077 259.138 43.0951 259.138 49.023ZM205.061 33.6857C198.875 33.6857 195.97 37.4494 195.97 37.4494V17.5956H186.973V70.006C186.973 70.006 193.908 70.006 194.564 70.006C195.314 70.006 195.876 69.3473 195.876 68.6887V67.0891C195.876 67.0891 198.782 70.9469 204.967 70.9469C215.183 70.9469 223.149 63.043 223.149 52.3163C223.243 41.5896 215.276 33.6857 205.061 33.6857ZM203.561 62.3844C200.094 62.3844 197.376 60.5966 195.97 58.5265V45.9179C197.376 44.036 200.375 42.0601 203.561 42.0601C209.559 42.0601 214.152 45.8238 214.152 52.2222C214.152 58.6206 209.559 62.3844 203.561 62.3844ZM179.194 33.6857C181.912 33.6857 183.318 34.1562 183.318 34.1562V42.5305C183.318 42.5305 175.82 39.99 171.134 45.3534V70.1001H162.137V34.6266C162.137 34.6266 169.072 34.6266 169.728 34.6266C170.478 34.6266 171.04 35.2853 171.04 35.9439V37.4494C172.727 35.4735 176.382 33.6857 179.194 33.6857ZM85.7544 66.8068C85.2858 65.6777 84.8172 64.4545 84.3486 63.4194C83.5989 61.7257 82.8491 60.1261 82.1931 58.6206L82.0993 58.5265C75.6326 44.4124 68.6973 30.1101 61.3871 15.996L61.1059 15.4314C60.3561 14.02 59.6064 12.5145 58.8566 11.009C57.9194 9.31532 56.9822 7.52753 55.4827 5.83383C52.4836 2.07007 48.1724 0 43.5801 0C38.8941 0 34.6767 2.07007 31.5839 5.64565C30.1781 7.33934 29.1471 9.12713 28.2099 10.8208C27.4602 12.3263 26.7104 13.8318 25.9606 15.2432L25.6795 15.8078C18.463 29.9219 11.4339 44.2242 4.9672 58.3383L4.87347 58.5265C4.21743 60.032 3.46766 61.6316 2.7179 63.3253C2.24929 64.3604 1.78069 65.4895 1.31209 66.7127C0.0937183 70.1942 -0.281165 73.4875 0.187439 76.8749C1.21837 83.9319 5.9044 89.8599 12.3711 92.4945C14.8079 93.5295 17.3383 94 19.9625 94C20.7123 94 21.6495 93.9059 22.3992 93.8118C25.492 93.4354 28.6785 92.4004 31.7713 90.6126C35.6139 88.4484 39.269 85.3433 43.3927 80.8268C47.5164 85.3433 51.2652 88.4484 55.0141 90.6126C58.1068 92.4004 61.2933 93.4354 64.3861 93.8118C65.1359 93.9059 66.0731 94 66.8229 94C69.447 94 72.0712 93.5295 74.4142 92.4945C80.9747 89.8599 85.567 83.8378 86.5979 76.8749C87.3477 73.5816 86.9728 70.2883 85.7544 66.8068ZM43.4864 71.6997C38.4255 65.3013 35.1453 59.2793 34.0206 54.1982C33.552 52.034 33.4583 50.1521 33.7395 48.4585C33.9269 46.953 34.4892 45.6356 35.239 44.5065C37.0197 41.966 40.0187 40.3664 43.4864 40.3664C46.9541 40.3664 50.0469 41.8719 51.7338 44.5065C52.4836 45.6356 53.0459 46.953 53.2334 48.4585C53.5145 50.1521 53.4208 52.1281 52.9522 54.1982C51.8276 59.1852 48.5473 65.2072 43.4864 71.6997ZM80.881 76.1221C80.2249 81.015 76.9447 85.2492 72.3524 87.1311C70.1031 88.0721 67.6663 88.3543 65.2296 88.0721C62.8866 87.7898 60.5436 87.037 58.1068 85.6256C54.7329 83.7437 51.3589 80.8268 47.4227 76.4985C53.6082 68.8769 57.3571 61.9139 58.7629 55.7037C59.4189 52.7868 59.5126 50.1522 59.2315 47.7057C58.8566 45.3534 58.0131 43.1892 56.701 41.3073C53.7957 37.0731 48.9222 34.6266 43.4864 34.6266C38.0506 34.6266 33.1771 37.1672 30.2718 41.3073C28.9597 43.1892 28.1162 45.3534 27.7413 47.7057C27.3664 50.1522 27.4602 52.8809 28.2099 55.7037C29.6157 61.9139 33.4583 68.971 39.5501 76.5926C35.7076 80.9209 32.2399 83.8378 28.866 85.7197C26.4292 87.1311 24.0862 87.8839 21.7432 88.1662C19.2127 88.4484 16.776 88.0721 14.6204 87.2252C10.0281 85.3433 6.74789 81.1091 6.09184 76.2162C5.81068 73.8639 5.99812 71.5115 6.93533 68.8769C7.21649 67.9359 7.6851 66.995 8.1537 65.8659C8.80974 64.3604 9.55951 62.7608 10.3093 61.1612L10.403 60.973C16.8697 46.953 23.8051 32.6507 31.0216 18.7247L31.3027 18.1602C32.0525 16.7487 32.8022 15.2432 33.552 13.8318C34.3018 12.3263 35.1453 10.9149 36.1762 9.69169C38.1443 7.43343 40.7685 6.21021 43.6738 6.21021C46.5792 6.21021 49.2034 7.43343 51.1715 9.69169C52.2024 10.9149 53.0459 12.3263 53.7957 13.8318C54.5455 15.2432 55.2952 16.7487 56.045 18.1602L56.3261 18.7247C63.4489 32.7447 70.3842 47.047 76.851 61.0671V61.1612C77.6007 62.6667 78.2568 64.3604 79.0066 65.8659C79.4752 66.995 79.9438 67.9359 80.2249 68.8769C80.9747 71.3233 81.2559 73.6757 80.881 76.1221Z" fill="#FF385C"/>
</g>
<defs>
<clipPath id="clip0_64_18">
<rect width="300" height="94" fill="white"/>
</clipPath>
</defs>
</svg>
