<svg width="41" height="41" viewBox="0 0 41 41" fill="none" xmlns="http://www.w3.org/2000/svg">
<rect x="0.284271" y="0.284271" width="4.44444" height="4.44444" fill="#272A31"/>
<rect x="0.284271" y="9.17316" width="4.44444" height="4.44444" fill="#272A31"/>
<rect x="0.284271" y="18.062" width="4.44444" height="4.44444" fill="#272A31"/>
<rect x="0.284271" y="26.9509" width="4.44444" height="4.44444" fill="#272A31"/>
<rect x="0.284271" y="35.8398" width="4.44444" height="4.44444" fill="#272A31"/>
<rect x="4.72871" y="4.72871" width="4.44444" height="4.44444" fill="#272A31"/>
<rect x="4.72871" y="13.6176" width="4.44444" height="4.44444" fill="#272A31"/>
<rect x="4.72871" y="22.5065" width="4.44444" height="4.44444" fill="#272A31"/>
<rect x="4.72871" y="31.3954" width="4.44444" height="4.44444" fill="#272A31"/>
<rect x="9.17316" y="0.284271" width="4.44444" height="4.44444" fill="#272A31"/>
<rect x="9.17316" y="9.17316" width="4.44444" height="4.44444" fill="#272A31"/>
<rect x="9.17316" y="18.062" width="4.44444" height="4.44444" fill="#272A31"/>
<rect x="9.17316" y="26.9509" width="4.44444" height="4.44444" fill="#272A31"/>
<rect x="9.17316" y="35.8398" width="4.44444" height="4.44444" fill="#272A31"/>
<rect x="13.6176" y="4.72871" width="4.44444" height="4.44444" fill="#272A31"/>
<rect x="13.6176" y="13.6176" width="4.44444" height="4.44444" fill="#272A31"/>
<rect x="13.6176" y="22.5065" width="4.44444" height="4.44444" fill="#272A31"/>
<rect x="13.6176" y="31.3954" width="4.44444" height="4.44444" fill="#272A31"/>
<rect x="18.062" y="0.284271" width="4.44444" height="4.44444" fill="#272A31"/>
<rect x="18.062" y="9.17316" width="4.44444" height="4.44444" fill="#272A31"/>
<rect x="18.062" y="18.062" width="4.44444" height="4.44444" fill="#272A31"/>
<rect x="18.062" y="26.9509" width="4.44444" height="4.44444" fill="#272A31"/>
<rect x="18.062" y="35.8398" width="4.44444" height="4.44444" fill="#272A31"/>
<rect x="22.5065" y="4.72871" width="4.44444" height="4.44444" fill="#272A31"/>
<rect x="22.5065" y="13.6176" width="4.44444" height="4.44444" fill="#272A31"/>
<rect x="22.5065" y="22.5065" width="4.44444" height="4.44444" fill="#272A31"/>
<rect x="22.5065" y="31.3954" width="4.44444" height="4.44444" fill="#272A31"/>
<rect x="26.9509" y="0.284271" width="4.44444" height="4.44444" fill="#272A31"/>
<rect x="26.9509" y="9.17316" width="4.44444" height="4.44444" fill="#272A31"/>
<rect x="26.9509" y="18.062" width="4.44444" height="4.44444" fill="#272A31"/>
<rect x="26.9509" y="26.9509" width="4.44444" height="4.44444" fill="#272A31"/>
<rect x="26.9509" y="35.8398" width="4.44444" height="4.44444" fill="#272A31"/>
<rect x="31.3954" y="4.72871" width="4.44444" height="4.44444" fill="#272A31"/>
<rect x="31.3954" y="13.6176" width="4.44444" height="4.44444" fill="#272A31"/>
<rect x="31.3954" y="22.5065" width="4.44444" height="4.44444" fill="#272A31"/>
<rect x="31.3954" y="31.3954" width="4.44444" height="4.44444" fill="#272A31"/>
<rect x="35.8398" y="0.284271" width="4.44444" height="4.44444" fill="#272A31"/>
<rect x="35.8398" y="9.17316" width="4.44444" height="4.44444" fill="#272A31"/>
<rect x="35.8398" y="18.062" width="4.44444" height="4.44444" fill="#272A31"/>
<rect x="35.8398" y="26.9509" width="4.44444" height="4.44444" fill="#272A31"/>
<rect x="35.8398" y="35.8398" width="4.44444" height="4.44444" fill="#272A31"/>
</svg>
