<svg width="300" height="94" viewBox="0 0 300 94" fill="none" xmlns="http://www.w3.org/2000/svg">
<g clip-path="url(#clip0_62_2)">
<path d="M37.5268 33.5409V43.5818H61.7584C61.1151 49.1364 59.1851 53.4091 56.183 56.1864C52.752 59.6045 47.1766 63.45 37.5268 63.45C22.7305 63.45 11.1508 51.4864 11.1508 36.7455C11.1508 22.0045 22.5161 10.0409 37.5268 10.0409C45.461 10.0409 51.4653 13.2455 55.7541 17.3045L62.8306 10.2545C56.8263 4.48636 48.6776 0 37.5268 0C17.1551 0 0 16.45 0 36.7455C0 57.0409 17.1551 73.4909 37.5268 73.4909C48.4632 73.4909 56.8263 69.8591 63.2595 63.2364C69.9071 56.6136 72.0515 47.2136 72.0515 39.7364C72.0515 37.3864 71.837 35.25 71.6226 33.5409H37.5268Z" fill="#4285F4"/>
<path d="M102.073 25.2091C88.9921 25.2091 78.0558 35.25 78.0558 48.9227C78.0558 62.5955 88.7777 72.6364 102.073 72.6364C115.368 72.6364 126.09 62.8091 126.09 49.1364C126.09 35.25 115.368 25.2091 102.073 25.2091ZM102.073 63.45C94.782 63.45 88.5633 57.4682 88.5633 49.1364C88.5633 40.5909 94.782 34.8227 102.073 34.8227C109.364 34.8227 115.583 40.5909 115.583 49.1364C115.583 57.4682 109.364 63.45 102.073 63.45Z" fill="#EA4335"/>
<path d="M219.371 30.55H218.942C216.583 27.7727 212.08 25.2091 206.29 25.2091C194.282 25.2091 183.989 35.4636 183.989 48.9227C183.989 62.1682 194.282 72.6364 206.29 72.6364C212.08 72.6364 216.583 70.0727 218.942 67.2955H219.371V70.7136C219.371 79.6864 214.439 84.6 206.719 84.6C200.286 84.6 196.426 80.1136 194.711 76.0546L185.704 79.9C188.277 86.0955 195.354 94 206.934 94C219.157 94 229.664 86.7364 229.664 69.2182V26.4909H219.8V30.55H219.371ZM207.362 63.45C200.071 63.45 194.711 57.2546 194.711 49.1364C194.711 40.8046 200.286 34.8227 207.362 34.8227C214.439 34.8227 220.014 41.0182 220.014 49.35C220.229 57.4682 214.653 63.45 207.362 63.45Z" fill="#4285F4"/>
<path d="M155.468 25.2091C142.387 25.2091 131.451 35.25 131.451 48.9227C131.451 62.5955 142.173 72.6364 155.468 72.6364C168.763 72.6364 179.485 62.8091 179.485 49.1364C179.485 35.25 168.763 25.2091 155.468 25.2091ZM155.468 63.45C148.177 63.45 141.959 57.4682 141.959 49.1364C141.959 40.5909 148.177 34.8227 155.468 34.8227C162.759 34.8227 168.978 40.5909 168.978 49.1364C168.978 57.4682 162.759 63.45 155.468 63.45Z" fill="#FBBC05"/>
<path d="M237.598 1.06824H247.891V72.8501H237.598V1.06824Z" fill="#34A853"/>
<path d="M279.628 63.45C274.267 63.45 270.622 61.1 268.049 56.1864L300 43.1546L298.928 40.3773C296.998 35.0364 290.779 25.2091 278.556 25.2091C266.333 25.2091 256.04 34.8227 256.04 48.9227C256.04 62.1682 266.119 72.6364 279.628 72.6364C290.565 72.6364 296.783 66.0136 299.571 62.1682L291.422 56.8273C288.635 60.8864 284.989 63.45 279.628 63.45ZM278.985 34.1818C283.274 34.1818 286.919 36.3182 287.991 39.3091L266.548 48.2818C266.333 38.4546 273.624 34.1818 278.985 34.1818Z" fill="#EA4335"/>
</g>
<defs>
<clipPath id="clip0_62_2">
<rect width="300" height="94" fill="white"/>
</clipPath>
</defs>
</svg>
