<svg width="600" height="63" viewBox="0 0 600 63" fill="none" xmlns="http://www.w3.org/2000/svg">
<g clip-path="url(#clip0_64_58)">
<path d="M595.636 1.10139H588.065L586.964 2.34028V38.6806L548.283 0L547.181 1.10139V59.7431L548.282 60.8444H555.854L557.093 59.7431V22.8514L595.086 60.8444H596.875V2.34028L595.636 1.10139ZM404.569 2.34028V11.15H414.481V60.8444H424.393V11.1486H433.203L434.442 9.90972V1.10139H405.671L404.569 2.34028ZM441.049 2.34028V11.15H450.96V60.8444H460.871V11.1486H469.681L470.782 9.90972V1.10139H442.15L441.049 2.34028ZM9.91111 1.10139H1.10139L0 2.34028V60.8444H29.8708V50.9333H9.9125L9.91111 1.10139ZM66.35 1.10139C60.4422 1.10166 54.6671 2.85379 49.755 6.13621C44.843 9.41862 41.0146 14.0839 38.7539 19.5421C36.4933 25.0003 35.902 31.0063 37.0547 36.8006C38.2074 42.5949 41.0524 47.9172 45.23 52.0946C49.4076 56.272 54.73 59.1167 60.5244 60.2692C66.3187 61.4217 72.3247 60.83 77.7828 58.5691C83.2409 56.3083 87.906 52.4796 91.1882 47.5674C94.4704 42.6552 96.2222 36.8801 96.2222 30.9722C96.2222 27.0494 95.4495 23.165 93.9483 19.5408C92.4471 15.9166 90.2467 12.6236 87.4728 9.84986C84.6989 7.07608 81.4058 4.87584 77.7815 3.37477C74.1572 1.8737 70.2728 1.10121 66.35 1.10139ZM66.35 50.7958C62.3908 50.823 58.513 49.6721 55.2097 47.4895C51.9064 45.3068 49.3268 42.1911 47.799 38.5384C46.2713 34.8858 45.8644 30.8613 46.63 26.9768C47.3956 23.0922 49.2993 19.5231 52.0988 16.7234C54.8983 13.9237 58.4673 12.0198 62.3518 11.2539C66.2362 10.488 70.2608 10.8946 73.9135 12.4221C77.5663 13.9496 80.6822 16.529 82.8651 19.8321C85.0479 23.1353 86.1991 27.013 86.1722 30.9722C86.1722 36.2294 84.0838 41.2713 80.3664 44.9887C76.649 48.706 71.6072 50.7944 66.35 50.7944V50.7958ZM507.399 1.1C501.485 1.07278 495.696 2.80147 490.766 6.06707C485.836 9.33266 481.986 13.9882 479.704 19.4438C477.422 24.8995 476.811 30.9097 477.947 36.7131C479.084 42.5165 481.918 47.8518 486.09 52.0431C490.262 56.2344 495.584 59.0932 501.382 60.2571C507.18 61.421 513.193 60.8377 518.659 58.5812C524.125 56.3247 528.799 52.4964 532.087 47.5814C535.376 42.6664 537.132 36.8859 537.132 30.9722C537.132 23.0738 534.004 15.4968 528.432 9.89882C522.859 4.30089 515.297 1.13775 507.399 1.10139V1.1ZM507.399 50.7944C503.439 50.8216 499.561 49.6707 496.258 47.488C492.955 45.3053 490.375 42.1894 488.848 38.5367C487.32 34.884 486.913 30.8594 487.679 26.9749C488.444 23.0903 490.348 19.5212 493.148 16.7215C495.948 13.9219 499.517 12.0181 503.401 11.2523C507.286 10.4866 511.31 10.8934 514.963 12.4211C518.616 13.9489 521.732 16.5284 523.914 19.8318C526.097 23.1351 527.248 27.013 527.221 30.9722C527.221 36.2294 525.132 41.2713 521.415 44.9887C517.698 48.706 512.656 50.7944 507.399 50.7944ZM140.408 1.1L139.307 2.20139V40.8819C139.307 43.5105 138.263 46.0315 136.404 47.8902C134.545 49.7489 132.024 50.7931 129.396 50.7931C126.754 50.7933 124.219 49.7535 122.339 47.8987C120.458 46.0438 119.383 43.5231 119.347 40.8819V2.20278L118.246 1.10139H110.537L109.436 2.20278V40.8833C109.208 43.6339 109.554 46.4017 110.45 49.0121C111.346 51.6225 112.774 54.0186 114.643 56.0491C116.513 58.0796 118.783 59.7003 121.31 60.8089C123.838 61.9175 126.568 62.4899 129.328 62.4899C132.088 62.4899 134.818 61.9175 137.345 60.8089C139.873 59.7003 142.143 58.0796 144.012 56.0491C145.881 54.0186 147.309 51.6225 148.206 49.0121C149.102 46.4017 149.447 43.6339 149.219 40.8833V2.20278L148.118 1.10139L140.408 1.1ZM169.042 2.33889V60.8431H177.851L179.09 59.7417V1.10139H170.281L169.042 2.33889ZM349.371 1.10139L348.131 2.20278V40.8833C348.131 43.5119 347.086 46.0329 345.228 47.8916C343.369 49.7502 340.848 50.7944 338.219 50.7944C335.591 50.7944 333.07 49.7502 331.211 47.8916C329.353 46.0329 328.308 43.5119 328.308 40.8833V2.20278L327.069 1.10139H319.5L318.397 2.20278V40.8833C318.169 43.6339 318.515 46.4017 319.411 49.0121C320.307 51.6225 321.735 54.0186 323.605 56.0491C325.474 58.0796 327.744 59.7003 330.271 60.8089C332.799 61.9175 335.529 62.4899 338.289 62.4899C341.049 62.4899 343.779 61.9175 346.306 60.8089C348.834 59.7003 351.104 58.0796 352.973 56.0491C354.843 54.0186 356.271 51.6225 357.167 49.0121C358.063 46.4017 358.408 43.6339 358.181 40.8833V2.20278L356.942 1.10139H349.371ZM378.003 2.34028V60.8444H386.812L387.914 59.7431V1.10139H379.104L378.003 2.34028ZM216.394 26.4306C214.125 25.2138 211.92 23.881 209.787 22.4375C207.585 20.9236 206.346 19.2708 206.483 16.6569C206.587 14.9273 207.339 13.3003 208.589 12.1009C209.84 10.9014 211.497 10.2176 213.229 10.1861C214.625 10.186 215.993 10.5718 217.184 11.3007C218.374 12.0296 219.339 13.0734 219.974 14.3167H221.764L227.544 8.53472C225.914 6.25366 223.768 4.39093 221.279 3.09895C218.791 1.80697 216.033 1.12244 213.229 1.10139C208.841 0.956462 204.561 2.48122 201.253 5.36806C199.547 6.92661 198.179 8.81769 197.232 10.9249C196.285 13.0321 195.779 15.3108 195.746 17.6208C195.746 23.9528 199.188 29.1833 202.492 30.9722L213.09 37.0292C214.651 37.6947 215.931 38.8836 216.71 40.3911C217.489 41.8987 217.718 43.6306 217.358 45.2889C216.898 47.1909 215.732 48.8466 214.096 49.9203C212.46 50.994 210.477 51.4053 208.549 51.0708C206.071 50.7958 203.593 48.8681 202.354 48.0431L199.739 45.8389L192.306 53.5472C195.304 57.2581 199.481 59.8327 204.143 60.8444C206.049 61.2069 207.985 61.391 209.925 61.3944C214.964 61.3223 219.775 59.279 223.326 55.7025C226.876 52.126 228.885 47.3008 228.921 42.2611C228.921 32.2111 219.974 28.3583 216.394 26.4306ZM282.469 37.5806L267.465 1.10139H256.59L281.368 60.8444L282.469 61.9444L283.708 60.8444L308.349 1.10139H297.612L282.469 37.5806Z" fill="#181716"/>
</g>
<defs>
<clipPath id="clip0_64_58">
<rect width="600" height="62.5" fill="white"/>
</clipPath>
</defs>
</svg>
