<svg width="300" height="248" viewBox="0 0 300 248" fill="none" xmlns="http://www.w3.org/2000/svg">
<path d="M268.488 62.1646C268.669 64.7947 268.669 67.4248 268.669 70.0791C268.669 150.957 207.218 244.235 94.8508 244.235V244.186C61.6572 244.235 29.1532 234.708 1.20966 216.746C6.03627 217.328 10.8871 217.619 15.75 217.631C43.258 217.655 69.9798 208.407 91.6209 191.378C65.4798 190.882 42.5564 173.804 34.5484 148.873C43.7056 150.642 53.1411 150.279 62.129 147.818C33.629 142.049 13.125 116.96 13.125 87.8232C13.125 87.5565 13.125 87.302 13.125 87.0475C21.6169 91.7865 31.125 94.4166 40.8508 94.7075C14.008 76.7332 5.73385 40.9542 21.9435 12.9807C52.9597 51.2201 98.7218 74.4667 147.847 76.9271C142.923 55.6682 149.649 33.3912 165.52 18.447C190.125 -4.72693 228.823 -3.53914 251.952 21.1013C265.633 18.3985 278.746 13.3686 290.746 6.24189C286.185 20.4104 276.641 32.4458 263.891 40.0937C276 38.6635 287.831 35.4153 298.972 30.4581C290.77 42.7723 280.44 53.4987 268.488 62.1646Z" fill="#1D9BF0"/>
</svg>
